<?xml version="1.0" standalone="no"?>
<!DOCTYPE svg PUBLIC "-//W3C//DTD SVG 20010904//EN"
 "http://www.w3.org/TR/2001/REC-SVG-20010904/DTD/svg10.dtd">
<svg version="1.0" xmlns="http://www.w3.org/2000/svg"
 width="2339.000000pt" height="2339.000000pt" viewBox="0 0 2339.000000 2339.000000"
 preserveAspectRatio="xMidYMid meet">

<g transform="translate(0.000000,2339.000000) scale(0.100000,-0.100000)"
fill="#000000" stroke="none">
<path d="M7354 17664 c-121 -59 -416 -333 -618 -574 -67 -80 -129 -156 -139
-170 -9 -14 -37 -52 -61 -85 -25 -33 -66 -96 -92 -140 -26 -44 -52 -86 -58
-94 -53 -67 -256 -485 -256 -528 0 -10 -5 -24 -10 -29 -6 -6 -21 -49 -34 -96
-13 -47 -27 -91 -30 -97 -4 -6 -16 -59 -26 -118 -11 -60 -24 -130 -30 -158
-13 -63 -14 -503 -1 -570 32 -171 44 -219 70 -300 47 -142 56 -163 119 -285
102 -199 200 -329 373 -500 81 -79 239 -214 305 -260 40 -28 107 -75 128 -90
12 -8 37 -24 55 -35 18 -11 45 -30 60 -41 14 -12 50 -34 79 -50 29 -16 71 -39
93 -51 22 -12 47 -27 56 -35 16 -13 57 -34 308 -162 83 -42 161 -82 175 -90
14 -7 41 -21 60 -30 19 -9 42 -20 50 -25 24 -16 187 -91 195 -91 5 0 16 -6 24
-13 9 -7 50 -28 91 -46 41 -18 125 -57 185 -87 61 -30 115 -54 121 -54 6 0 22
-8 35 -18 13 -10 45 -26 72 -36 63 -24 69 -37 54 -127 -12 -69 -14 -74 -40
-77 -16 -2 -39 6 -59 21 -18 13 -40 27 -48 30 -8 4 -37 20 -65 36 -88 52 -149
85 -196 106 -25 11 -52 25 -60 31 -8 6 -50 25 -94 43 -44 18 -98 41 -120 51
-69 32 -118 48 -200 70 -44 11 -98 27 -120 35 -48 17 -276 51 -403 61 -104 8
-350 -10 -427 -31 -27 -8 -75 -19 -105 -26 -105 -22 -363 -114 -420 -150 -8
-5 -26 -14 -40 -19 -14 -6 -46 -22 -71 -35 -26 -14 -57 -31 -70 -37 -47 -25
-258 -169 -307 -209 -15 -13 -44 -35 -62 -49 -81 -60 -260 -231 -260 -249 0
-30 115 -224 190 -322 19 -25 48 -63 65 -85 122 -160 398 -407 540 -483 22
-12 54 -30 71 -40 17 -11 65 -33 105 -51 41 -17 83 -35 94 -40 71 -33 244 -77
395 -101 202 -32 431 -22 664 31 68 15 263 78 312 101 23 10 45 19 49 19 13 0
238 103 265 121 48 32 131 70 140 64 15 -9 12 -64 -9 -151 -41 -169 -61 -264
-61 -287 0 -13 -9 -59 -20 -103 -31 -121 -36 -236 -15 -325 10 -41 24 -83 31
-94 8 -11 14 -27 14 -36 0 -15 10 -40 66 -166 8 -17 14 -36 14 -42 0 -6 9 -30
19 -53 26 -60 54 -130 86 -218 15 -41 34 -88 41 -105 23 -52 70 -168 94 -230
22 -60 27 -71 74 -179 14 -32 26 -64 26 -71 0 -7 18 -53 40 -103 22 -49 40
-94 40 -100 0 -5 8 -29 18 -53 10 -24 40 -100 66 -169 51 -132 55 -144 105
-256 17 -39 31 -76 31 -82 0 -7 9 -29 20 -49 11 -21 20 -42 20 -48 0 -5 14
-44 31 -85 17 -41 40 -96 50 -122 11 -27 27 -69 38 -95 10 -27 27 -70 36 -98
10 -27 26 -68 36 -90 19 -43 47 -114 74 -185 28 -75 66 -163 86 -202 21 -41
24 -93 9 -200 -32 -238 -50 -400 -50 -453 1 -180 48 -327 137 -428 95 -109
248 -182 405 -194 43 -3 82 -11 87 -17 4 -6 14 -29 21 -51 21 -68 91 -207 132
-265 139 -196 375 -358 603 -414 121 -31 245 -36 825 -36 538 0 592 2 675 19
298 64 533 219 683 451 39 61 122 239 122 262 0 37 25 50 116 59 140 13 251
62 356 157 46 42 115 141 125 180 3 15 15 43 25 64 24 46 26 203 4 333 -19
112 -46 359 -46 421 0 43 43 170 85 251 8 15 15 34 15 40 0 7 9 32 19 55 11
24 32 75 46 113 15 39 33 84 40 100 8 17 26 62 40 100 14 39 32 84 40 100 8
17 28 68 46 115 17 47 40 104 50 127 11 24 19 46 19 50 1 5 9 26 20 48 11 22
19 47 20 55 0 9 6 24 14 35 7 11 19 38 26 60 7 22 16 45 20 50 4 6 13 28 20
50 7 22 20 58 31 80 10 22 46 114 80 205 33 91 69 183 79 205 34 77 62 150 69
180 4 17 13 39 19 50 6 11 23 52 37 90 15 39 35 88 46 111 10 23 19 48 19 56
0 8 7 23 15 34 8 10 19 37 25 59 6 22 19 60 30 85 10 25 28 70 39 100 34 95
92 243 112 290 30 72 50 131 61 185 11 56 5 186 -12 229 -6 16 -15 60 -20 100
-6 39 -19 109 -30 156 -10 47 -24 108 -30 135 -30 131 -41 198 -36 211 8 20
36 17 66 -6 14 -11 30 -20 36 -20 6 0 17 -7 24 -15 14 -16 206 -110 300 -146
310 -117 503 -159 767 -166 159 -5 195 -2 295 17 174 34 435 122 538 181 8 5
29 16 45 25 41 22 194 124 225 149 107 88 278 264 374 385 41 52 86 109 100
126 14 18 26 36 26 42 0 6 10 23 23 39 33 40 87 148 87 174 0 44 -239 251
-485 420 -96 67 -296 179 -317 179 -9 0 -21 6 -27 14 -7 8 -24 17 -38 21 -15
3 -50 17 -78 30 -67 32 -266 93 -340 104 -33 5 -105 17 -160 25 -248 39 -560
0 -920 -114 -180 -57 -403 -161 -607 -283 -70 -41 -136 -78 -146 -81 -30 -10
-48 16 -61 87 -14 79 -7 98 41 117 39 15 118 51 243 110 50 23 122 56 160 73
80 34 832 412 885 445 19 12 62 36 94 53 33 17 71 39 85 49 14 9 80 52 146 95
351 228 604 464 783 730 68 101 170 297 192 370 7 22 16 45 20 50 12 17 52
157 66 230 7 39 17 88 23 110 7 23 11 128 12 248 0 181 -3 225 -26 350 -14 78
-32 165 -40 192 -8 28 -22 77 -31 110 -81 290 -249 610 -534 1019 -91 130
-384 445 -535 573 -83 70 -251 183 -274 183 -27 0 -33 -25 -22 -89 6 -31 15
-114 20 -184 6 -70 18 -171 26 -225 16 -105 40 -325 55 -517 6 -66 18 -172 28
-235 13 -88 17 -179 17 -390 0 -340 -13 -418 -101 -594 -110 -221 -291 -384
-600 -540 -50 -25 -93 -46 -97 -46 -4 0 -30 -11 -59 -24 -29 -13 -73 -31 -98
-41 -25 -10 -58 -23 -75 -30 -16 -7 -48 -20 -70 -28 -168 -63 -214 -80 -320
-116 -66 -23 -167 -59 -225 -80 -58 -21 -114 -41 -125 -44 -11 -3 -51 -17 -90
-32 -77 -28 -149 -52 -328 -111 l-117 -38 -68 31 c-37 17 -83 38 -104 46 -64
28 -240 68 -338 77 -53 5 -734 10 -1550 10 -1541 0 -1495 1 -1665 -45 -33 -9
-78 -21 -100 -26 -40 -10 -64 -19 -145 -58 -56 -26 -105 -27 -161 -1 -24 11
-53 20 -64 20 -11 0 -33 7 -48 15 -15 8 -62 24 -105 36 -42 12 -89 27 -103 35
-15 7 -44 18 -65 23 -22 5 -70 21 -109 36 -125 46 -179 66 -210 75 -16 5 -68
23 -115 40 -47 18 -121 45 -165 60 -144 51 -170 61 -180 70 -5 4 -21 11 -35
15 -65 19 -382 168 -418 197 -7 6 -25 18 -42 27 -113 62 -259 187 -343 293
-152 191 -197 360 -197 738 0 118 4 258 9 310 24 235 32 320 52 545 11 132 22
242 24 245 2 3 13 85 25 181 11 95 28 211 36 256 24 122 13 133 -82 87z m9037
-1079 c5 -11 21 -38 34 -60 14 -22 31 -51 37 -65 7 -14 22 -38 34 -55 12 -16
25 -41 29 -55 4 -14 15 -34 25 -45 10 -11 21 -31 25 -45 4 -14 16 -35 26 -48
10 -13 23 -40 30 -60 6 -20 17 -44 23 -52 7 -8 23 -42 35 -75 13 -33 32 -78
41 -100 35 -80 73 -211 97 -335 14 -74 18 -142 18 -305 0 -190 -3 -222 -27
-332 -31 -142 -61 -221 -135 -357 -58 -105 -73 -128 -167 -246 -106 -132 -255
-276 -391 -377 -51 -38 -278 -188 -305 -201 -14 -7 -43 -23 -65 -36 -22 -13
-62 -35 -89 -50 -27 -14 -54 -30 -60 -35 -15 -12 -211 -114 -432 -225 -159
-80 -237 -118 -439 -211 -27 -13 -108 -51 -178 -84 -70 -34 -135 -61 -143 -61
-18 0 -29 28 -42 105 -33 202 -46 264 -58 293 -8 18 -14 39 -14 47 0 19 -79
215 -95 235 -6 8 -33 51 -60 95 -27 44 -64 98 -82 120 -55 64 -45 79 82 125
33 12 69 26 80 31 11 5 45 17 75 28 167 56 704 255 830 306 36 15 111 49 168
76 57 27 105 49 108 49 9 0 212 117 260 150 234 160 384 322 497 532 20 39 37
76 37 82 0 7 9 29 20 51 11 21 23 54 26 72 3 18 10 35 14 38 5 3 11 22 14 43
3 20 15 96 27 167 19 117 21 152 15 360 -4 127 -11 275 -17 330 -30 307 -28
321 37 250 25 -28 50 -59 55 -70z m-9475 -122 c-23 -236 -31 -584 -17 -693 13
-107 53 -288 69 -317 7 -12 12 -29 12 -38 0 -9 6 -29 14 -43 8 -15 34 -65 56
-112 23 -46 53 -97 66 -113 13 -16 24 -35 24 -42 0 -7 4 -15 8 -17 4 -1 23
-23 42 -47 70 -88 193 -204 276 -261 102 -70 150 -100 160 -100 6 0 18 -7 25
-16 8 -9 32 -25 54 -36 22 -10 51 -25 65 -33 14 -7 57 -28 95 -45 39 -17 88
-40 110 -50 140 -65 175 -80 185 -80 6 0 25 -7 41 -16 32 -16 156 -63 249 -94
30 -10 69 -25 85 -34 17 -9 40 -16 53 -16 13 0 35 -6 50 -13 15 -8 59 -24 97
-36 39 -13 84 -29 100 -36 17 -8 55 -21 85 -31 30 -9 60 -20 65 -24 6 -4 50
-21 99 -38 49 -17 94 -36 99 -41 11 -11 -3 -33 -88 -146 -25 -33 -54 -78 -65
-100 -11 -22 -27 -51 -35 -65 -20 -34 -60 -134 -79 -198 -14 -46 -36 -140 -90
-396 -7 -32 -19 -62 -27 -66 -9 -6 -42 5 -94 30 -325 157 -441 211 -461 216
-13 3 -28 12 -34 19 -7 8 -28 19 -48 26 -20 7 -47 20 -60 30 -13 10 -36 21
-52 24 -17 4 -32 11 -36 16 -3 6 -29 21 -57 34 -29 14 -59 29 -67 35 -8 6 -31
17 -50 26 -19 9 -57 28 -85 44 -27 16 -84 46 -125 68 -95 50 -215 117 -260
147 -179 115 -258 170 -344 238 -330 264 -561 607 -622 927 -33 173 -44 389
-25 515 34 222 35 229 86 390 14 44 32 94 39 110 8 17 28 64 46 105 29 69 43
99 120 249 14 27 33 58 43 68 9 11 17 24 17 29 0 5 15 33 33 62 17 28 43 70
57 93 14 23 38 55 53 72 26 28 29 29 44 14 14 -14 14 -31 -1 -194z m6129
-2353 c113 -11 245 -45 325 -85 97 -48 117 -60 185 -110 195 -144 324 -332
375 -550 12 -49 25 -106 30 -125 5 -19 14 -60 20 -90 6 -30 31 -147 56 -260
45 -201 61 -273 104 -475 11 -55 32 -148 45 -207 14 -59 25 -116 25 -127 0
-10 11 -68 25 -128 14 -59 35 -151 47 -203 11 -52 29 -126 39 -165 10 -38 21
-90 24 -115 4 -25 16 -76 26 -115 10 -38 19 -83 19 -99 0 -16 11 -77 25 -135
13 -58 32 -137 41 -176 29 -126 35 -159 41 -245 5 -76 2 -93 -20 -150 -14 -36
-37 -99 -51 -140 -15 -41 -35 -93 -45 -115 -40 -87 -89 -211 -172 -435 -12
-30 -33 -86 -49 -125 -15 -38 -38 -97 -50 -130 -13 -33 -37 -96 -55 -140 -18
-44 -45 -111 -60 -150 -15 -38 -35 -88 -45 -110 -10 -22 -21 -51 -25 -65 -4
-14 -16 -41 -26 -60 -11 -19 -19 -40 -19 -47 0 -7 -9 -32 -19 -55 -25 -56 -53
-129 -80 -203 -12 -33 -31 -77 -41 -97 -11 -20 -20 -41 -20 -47 0 -5 -10 -31
-22 -58 -11 -26 -29 -68 -38 -93 -10 -25 -26 -67 -36 -94 -11 -27 -27 -54 -37
-60 -19 -12 -21 -10 -84 78 -102 142 -268 255 -465 318 l-73 23 -1305 3 c-826
2 -1333 -1 -1380 -7 -90 -12 -163 -33 -248 -72 -35 -16 -65 -29 -68 -29 -16 0
-170 -125 -216 -175 -15 -16 -44 -58 -64 -92 -20 -35 -43 -63 -50 -63 -14 0
-40 43 -55 89 -9 32 -87 229 -150 384 -10 26 -28 68 -38 95 -11 26 -39 97 -62
157 -22 61 -49 128 -59 150 -10 22 -23 57 -30 77 -6 21 -16 40 -21 43 -5 4 -9
13 -9 22 0 8 -11 41 -24 72 -14 31 -43 106 -67 166 -105 276 -254 656 -283
725 -126 291 -142 368 -108 510 11 47 27 121 37 165 9 44 21 95 27 113 5 18
14 59 19 90 9 58 19 108 39 197 17 79 37 175 49 235 16 84 42 208 57 275 21
87 43 196 64 310 38 202 57 291 67 310 6 11 14 51 18 89 4 38 13 92 21 120 8
28 21 89 29 136 9 47 22 105 30 130 8 25 17 68 21 95 3 28 15 85 26 127 10 42
23 98 28 125 11 58 51 175 66 194 6 8 15 25 19 38 13 44 91 154 159 228 122
131 285 237 454 294 l97 33 320 6 c596 11 2555 11 2670 0z m-5570 -1531 c61
-12 137 -30 170 -41 33 -11 83 -25 110 -32 28 -7 69 -22 92 -34 23 -12 48 -22
54 -22 13 0 65 -24 269 -123 69 -33 132 -66 141 -74 8 -7 34 -23 56 -35 128
-70 224 -135 229 -154 3 -12 1 -40 -5 -62 -13 -47 -42 -70 -223 -181 -117 -71
-465 -251 -486 -251 -7 0 -35 -11 -64 -25 -169 -78 -522 -138 -683 -115 -254
35 -361 66 -525 153 -205 107 -363 239 -500 419 -56 73 -70 108 -52 134 12 17
215 166 247 181 17 7 45 22 62 33 97 58 262 132 392 176 220 74 498 95 716 53z
m8795 -2 c36 -8 85 -20 110 -26 103 -23 216 -68 386 -155 142 -71 166 -85 184
-101 9 -8 33 -23 53 -33 54 -26 167 -130 167 -153 0 -43 -193 -261 -325 -368
-100 -81 -139 -105 -275 -172 -94 -46 -105 -51 -170 -74 -172 -61 -453 -85
-616 -51 -38 7 -96 17 -129 21 -33 4 -76 14 -95 22 -19 8 -62 22 -95 29 -33 8
-69 21 -80 28 -11 7 -36 18 -55 25 -20 6 -110 49 -200 94 -189 96 -212 108
-290 160 -32 20 -61 37 -64 37 -4 0 -30 17 -59 38 -29 21 -59 41 -69 45 -10 3
-21 27 -29 61 -15 69 -8 78 101 143 41 24 82 48 90 53 157 96 407 215 620 295
68 26 206 63 310 83 88 18 135 21 285 18 121 -2 201 -8 245 -19z m-3329 -4226
c177 -51 305 -214 329 -423 6 -51 17 -120 25 -153 8 -33 19 -130 25 -215 14
-196 28 -332 46 -439 8 -46 14 -124 14 -173 0 -107 -17 -147 -85 -200 -44 -35
-50 -36 -148 -43 -56 -3 -788 -5 -1627 -3 l-1525 3 -39 22 c-87 50 -126 109
-126 191 0 28 9 128 19 224 11 95 27 250 36 343 9 94 20 188 25 210 5 22 11
69 15 105 13 139 28 227 46 266 10 22 19 45 19 50 0 6 21 38 48 72 54 70 123
122 208 157 l59 25 1285 0 c1227 0 1288 -1 1351 -19z m-267 -2027 c13 -3 27
-12 30 -19 10 -28 -57 -136 -124 -198 -77 -73 -159 -118 -277 -152 l-85 -25
-617 0 c-683 0 -662 -2 -795 66 -125 64 -223 156 -276 258 -24 45 -24 48 -7
61 16 11 199 14 1072 15 580 0 1065 -2 1079 -6z"/>
<path d="M9676 11425 c-21 -7 -54 -28 -72 -46 -62 -60 -64 -70 -64 -351 l0
-254 32 -42 c41 -53 89 -77 153 -76 80 0 135 27 173 83 l33 48 0 258 -1 258
-30 47 c-23 36 -43 53 -80 69 -56 24 -89 26 -144 6z"/>
<path d="M13406 11424 c-48 -17 -71 -37 -102 -86 -24 -37 -24 -41 -24 -293 l0
-255 29 -48 c73 -117 249 -122 327 -9 l29 42 0 271 0 271 -28 40 c-19 28 -45
48 -77 62 -56 24 -99 26 -154 5z"/>
<path d="M12540 7920 l-165 -5 -3 -359 c-2 -256 1 -363 9 -372 9 -11 50 -14
180 -14 150 0 169 2 177 18 5 9 9 174 8 366 -1 337 -2 349 -21 360 -14 7 -73
9 -185 6z"/>
<path d="M10477 7913 c-4 -3 -7 -167 -7 -364 0 -344 1 -359 19 -369 11 -6 87
-10 175 -10 127 0 157 3 170 16 14 13 16 60 16 363 0 256 -3 350 -12 359 -13
13 -349 18 -361 5z"/>
</g>
</svg>
