<svg xmlns="http://www.w3.org/2000/svg" viewBox="0 0 24 24" fill="none" stroke="currentColor" stroke-width="2" stroke-linecap="round" stroke-linejoin="round">
  <path d="M7 11c0-3.5 3-6 5-6s5 2.5 5 6"/>
  <path d="M12 18c-3 0-5-1.5-5-4.5 0-2 1-3.5 3-4h4c2 .5 3 2 3 4 0 3-2 4.5-5 4.5z"/>
  <path d="M7 14c-1.5 0-3-1-3-3s1.5-2 3-2"/>
  <path d="M17 14c1.5 0 3-1 3-3s-1.5-2-3-2"/>
  <path d="M10 18v2a1 1 0 0 1-1 1H8"/>
  <path d="M14 18v2a1 1 0 0 0 1 1h1"/>
  <circle cx="10" cy="13" r=".5" fill="currentColor"/>
  <circle cx="14" cy="13" r=".5" fill="currentColor"/>
</svg>