<?xml version="1.0" standalone="no"?>
<!DOCTYPE svg PUBLIC "-//W3C//DTD SVG 20010904//EN"
 "http://www.w3.org/TR/2001/REC-SVG-20010904/DTD/svg10.dtd">
<svg version="1.0" xmlns="http://www.w3.org/2000/svg"
 width="2339.000000pt" height="2339.000000pt" viewBox="0 0 2339.000000 2339.000000"
 preserveAspectRatio="xMidYMid meet">

<g transform="translate(0.000000,2339.000000) scale(0.100000,-0.100000)"
fill="#000000" stroke="none">
<path d="M11169 15561 c-14 -5 -81 -42 -150 -83 -68 -41 -131 -78 -139 -81 -8
-4 -28 -16 -45 -27 -16 -11 -46 -29 -65 -40 -19 -11 -48 -29 -65 -39 -122 -75
-284 -172 -355 -214 -47 -27 -107 -64 -135 -82 -76 -49 -378 -231 -395 -238
-8 -4 -46 -27 -85 -52 -38 -25 -79 -50 -90 -55 -11 -6 -78 -46 -150 -90 -71
-44 -260 -159 -420 -254 -159 -96 -305 -189 -323 -207 -20 -20 -80 -127 -161
-288 -70 -141 -178 -353 -238 -471 -154 -300 -389 -761 -430 -845 -19 -38 -57
-115 -84 -170 -58 -117 -64 -170 -26 -226 38 -56 50 -59 293 -59 201 0 222 -2
237 -18 16 -17 17 -131 17 -1436 l0 -1416 -26 -10 c-16 -6 -288 -9 -730 -7
-607 2 -706 5 -714 17 -6 9 -10 249 -10 576 0 437 3 564 13 572 6 5 35 13 62
17 56 7 235 62 250 76 5 5 14 9 21 9 23 0 160 84 231 141 291 238 437 579 403
938 -26 273 -106 451 -295 659 -41 45 -77 93 -81 107 -3 13 -3 70 0 127 21
345 19 389 -21 543 -67 257 -246 458 -487 548 -73 27 -93 30 -201 30 -136 0
-197 -14 -309 -69 -218 -110 -376 -322 -431 -579 -17 -82 -17 -167 1 -486 4
-80 2 -113 -8 -132 -7 -14 -49 -65 -93 -112 -103 -112 -137 -161 -186 -264
-66 -138 -84 -201 -99 -356 -15 -148 7 -333 54 -464 78 -213 231 -411 415
-532 86 -57 230 -129 258 -129 11 0 23 -4 29 -9 5 -4 43 -16 84 -26 41 -9 89
-20 105 -24 l30 -7 3 -577 2 -577 -26 -10 c-15 -6 -220 -10 -515 -10 -530 0
-527 0 -563 -54 -39 -60 -3 -151 69 -172 53 -16 12020 -20 12077 -4 40 12 84
57 95 98 8 34 -22 90 -66 119 -33 23 -36 23 -276 17 -216 -5 -244 -4 -259 11
-13 14 -16 41 -16 169 0 105 4 156 12 164 8 8 64 12 186 12 160 0 178 2 208
21 43 26 54 47 54 101 0 38 -5 49 -38 81 l-38 37 -166 0 c-92 0 -178 4 -191 9
-24 9 -24 12 -29 168 -4 89 -2 166 3 176 9 15 28 17 173 17 195 0 218 4 257
42 23 24 29 38 29 73 0 37 -6 50 -38 85 l-39 40 -172 0 c-100 0 -180 4 -192
10 -17 10 -19 22 -19 138 0 70 -5 144 -10 164 -31 109 -172 120 -225 18 -11
-21 -15 -64 -15 -159 0 -71 -3 -136 -6 -145 -5 -14 -55 -16 -460 -16 -438 0
-454 1 -464 19 -5 11 -10 81 -10 157 l0 136 -39 39 c-33 34 -45 39 -83 39 -33
0 -52 -7 -77 -28 -40 -33 -49 -76 -51 -232 0 -58 -4 -111 -9 -118 -11 -18
-896 -21 -914 -3 -8 8 -14 69 -17 166 -5 144 -7 156 -29 179 -54 57 -135 54
-186 -5 -24 -30 -25 -35 -25 -170 0 -78 -5 -149 -10 -160 -10 -18 -23 -19
-218 -19 -149 0 -211 3 -220 12 -9 9 -12 206 -12 825 0 793 0 813 19 823 12 6
111 10 251 10 252 0 273 4 302 58 29 55 17 109 -55 250 -38 73 -67 143 -65
154 3 24 1 23 268 87 186 45 251 59 330 71 30 5 98 16 150 25 256 41 765 58
1080 36 150 -11 427 -47 540 -71 79 -16 303 -70 360 -86 94 -27 111 -32 243
-74 71 -22 138 -40 148 -40 11 0 38 17 61 38 36 34 41 44 42 86 2 86 -30 101
-449 226 -71 21 -327 81 -410 95 -362 65 -541 80 -940 79 -308 0 -479 -12
-665 -44 -30 -5 -98 -16 -150 -25 -215 -36 -369 -71 -590 -134 -74 -21 -140
-36 -147 -34 -6 3 -73 127 -149 276 -76 150 -227 447 -335 662 -108 214 -208
403 -222 420 -13 16 -78 62 -143 101 -208 124 -383 229 -402 239 -23 13 -754
452 -1047 630 -121 73 -276 167 -345 207 -69 41 -204 123 -301 182 -180 110
-221 126 -280 107z m129 -300 c59 -40 579 -361 585 -361 2 0 100 -59 218 -130
118 -72 230 -139 249 -150 50 -29 71 -42 107 -67 17 -13 34 -23 38 -23 3 0 58
-32 123 -71 174 -106 246 -149 357 -214 55 -32 112 -66 127 -76 15 -11 29 -19
32 -19 2 0 40 -22 83 -48 43 -27 85 -52 93 -56 8 -4 24 -12 35 -19 11 -7 40
-24 65 -39 25 -15 57 -40 72 -55 14 -15 118 -210 231 -433 113 -223 231 -452
262 -510 30 -58 98 -190 151 -294 53 -104 118 -229 145 -278 79 -142 88 -133
-132 -136 -167 -2 -187 -1 -201 15 -15 17 -41 65 -183 338 -85 164 -169 324
-208 395 -16 30 -95 183 -174 339 -79 156 -153 297 -164 313 -28 38 -69 65
-319 208 -118 68 -258 149 -310 180 -52 31 -147 87 -210 124 -63 37 -122 71
-130 76 -23 14 -200 115 -240 138 -19 10 -95 55 -168 98 -73 44 -140 84 -150
89 -111 63 -192 111 -214 126 -15 10 -49 31 -75 45 -26 14 -64 37 -83 49 -60
40 -96 41 -175 1 -38 -20 -77 -40 -85 -46 -24 -15 -267 -158 -350 -205 -41
-23 -127 -73 -190 -110 -63 -37 -149 -85 -190 -108 -41 -22 -82 -45 -90 -52
-8 -6 -35 -23 -60 -37 -81 -45 -353 -203 -455 -265 -55 -33 -143 -84 -195
-113 -52 -29 -111 -63 -130 -74 -19 -12 -48 -28 -64 -36 -51 -26 -110 -93
-150 -170 -21 -41 -88 -172 -148 -290 -60 -118 -136 -264 -168 -325 -32 -60
-83 -159 -113 -220 -99 -195 -238 -459 -249 -472 -14 -17 -358 -19 -375 -2 -8
8 -9 19 -2 37 19 49 541 1076 634 1247 15 28 61 116 101 197 66 129 80 151
123 182 27 20 52 36 57 36 4 0 15 6 23 14 9 8 32 22 51 32 19 11 73 43 120 72
47 29 94 59 105 65 11 7 44 27 74 45 29 19 63 38 75 43 12 5 41 23 66 39 25
16 83 52 130 80 123 73 122 73 157 97 17 13 34 23 37 23 2 0 130 76 283 169
153 93 296 180 318 193 209 127 575 351 634 390 45 29 86 48 103 48 17 0 52
-16 86 -39z m8 -730 c32 -21 81 -51 108 -67 27 -16 70 -41 95 -56 25 -15 68
-40 95 -55 27 -16 56 -33 65 -38 9 -6 47 -28 85 -50 37 -22 89 -52 115 -67 25
-15 66 -39 91 -53 25 -14 66 -38 91 -53 25 -15 79 -46 120 -70 41 -24 101 -60
134 -79 33 -19 80 -47 105 -61 25 -14 74 -42 109 -64 34 -21 65 -38 67 -38 2
0 34 -18 70 -41 37 -22 101 -59 143 -81 42 -23 83 -47 91 -53 8 -7 34 -22 57
-34 23 -11 50 -33 61 -48 10 -16 75 -138 144 -273 69 -135 139 -270 155 -300
17 -30 67 -127 113 -215 165 -320 345 -649 379 -695 19 -24 19 -60 22 -885 5
-1476 1 -1958 -15 -1980 -13 -18 -36 -19 -412 -22 -260 -3 -404 -1 -414 6 -13
9 -16 157 -20 1193 l-5 1183 -23 32 c-15 21 -37 36 -62 43 -26 7 -571 9 -1685
8 l-1647 -3 -32 -36 c-32 -34 -34 -41 -41 -140 -4 -57 -5 -591 -4 -1186 2
-595 0 -1085 -4 -1090 -5 -4 -192 -9 -416 -11 -373 -2 -409 -1 -422 14 -12 14
-15 229 -17 1368 -2 743 -1 1379 3 1412 5 51 13 72 46 116 23 29 49 69 58 88
27 52 102 195 146 275 21 39 85 162 142 275 159 310 304 590 401 772 28 52 46
73 86 97 84 52 273 163 401 236 66 37 131 76 145 85 23 16 76 46 182 103 57
31 233 134 280 163 21 13 40 24 42 24 3 0 49 26 103 58 54 32 143 85 198 117
162 93 288 168 324 192 48 32 79 29 147 -16z m-4435 -1276 c65 -19 93 -32 139
-64 86 -61 164 -170 196 -274 8 -29 20 -63 26 -77 19 -46 21 -228 4 -310 -9
-43 -16 -122 -16 -187 0 -155 18 -200 119 -306 185 -192 263 -353 277 -568 17
-240 -82 -499 -252 -660 -103 -97 -198 -152 -351 -201 -69 -22 -101 -28 -112
-21 -14 9 -16 40 -19 202 l-2 192 77 82 c42 45 116 123 164 172 149 154 157
168 139 234 -15 55 -66 94 -124 94 -53 0 -74 -15 -156 -110 -62 -74 -83 -86
-94 -57 -3 9 -6 88 -6 177 -1 199 -8 238 -49 277 -25 25 -39 30 -78 30 -52 -1
-76 -14 -105 -57 -17 -26 -18 -64 -18 -631 0 -488 -2 -604 -13 -608 -27 -10
-224 55 -266 87 -13 11 -28 19 -34 19 -12 0 -97 61 -156 112 -102 89 -199 245
-241 392 -41 145 -35 339 16 480 52 148 94 213 218 338 100 100 119 137 136
263 11 77 10 105 -4 191 -23 143 -21 301 4 389 26 90 43 127 96 202 116 164
316 245 485 198z m4050 -1885 c10 -6 19 -16 19 -23 0 -7 -23 -48 -52 -92 -28
-44 -67 -105 -86 -135 -19 -30 -47 -74 -63 -98 -16 -23 -29 -45 -29 -49 0 -3
-11 -21 -25 -39 -14 -18 -25 -37 -25 -42 0 -5 -10 -22 -22 -37 -23 -29 -75
-111 -163 -257 -60 -100 -79 -103 -130 -23 -19 31 -35 58 -35 61 0 2 -9 17
-19 32 -39 55 -251 383 -251 388 0 3 -11 20 -25 38 -14 18 -25 35 -25 38 0 3
-29 49 -65 104 -36 54 -65 105 -65 112 0 7 10 17 23 22 32 13 1013 13 1038 0z
m1627 -2 c21 -21 13 -41 -48 -132 -33 -48 -60 -90 -60 -92 0 -3 -33 -55 -73
-117 -131 -199 -183 -280 -242 -377 -67 -109 -83 -130 -101 -130 -8 0 -34 32
-59 70 -106 165 -187 290 -200 312 -5 9 -50 80 -100 158 -49 77 -94 149 -100
158 -5 10 -22 38 -37 64 -27 45 -35 78 -21 91 3 4 236 7 518 7 384 0 514 -3
523 -12z m160 -1084 c1 -428 0 -785 -3 -792 -9 -23 -42 5 -81 70 -54 90 -280
439 -363 561 -86 126 -85 124 -70 160 7 18 22 46 33 62 12 17 26 39 33 50 7
11 47 75 90 142 171 269 303 482 303 491 0 12 34 42 44 39 8 -3 12 -239 14
-783z m-2953 754 c31 -42 124 -188 221 -346 54 -86 107 -170 119 -187 12 -16
25 -37 28 -45 4 -8 32 -53 62 -99 30 -47 55 -94 55 -105 0 -12 -38 -79 -85
-150 -47 -71 -85 -130 -85 -132 0 -3 -124 -193 -277 -426 -46 -71 -67 -83 -76
-45 -4 18 -13 1527 -8 1550 3 15 31 6 46 -15z m1333 -782 c-3 -686 -5 -781
-18 -781 -8 0 -47 50 -87 110 -117 180 -236 364 -297 460 -32 50 -71 109 -87
133 -48 71 -48 74 38 210 43 68 111 176 152 240 41 64 97 153 126 197 28 44
62 98 75 120 12 22 34 57 48 78 53 79 52 86 50 -767z m299 782 c12 -13 58 -84
102 -158 45 -74 104 -169 131 -210 57 -87 89 -136 184 -291 81 -132 82 -115
-15 -265 -35 -54 -69 -106 -74 -116 -6 -9 -46 -69 -91 -135 -44 -65 -113 -172
-154 -238 -94 -151 -109 -168 -124 -129 -8 21 -8 1549 1 1557 11 11 18 8 40
-15z m3133 -928 c13 -20 13 -320 0 -340 -8 -13 -42 -15 -220 -13 -116 1 -215
5 -220 8 -6 4 -10 79 -10 176 0 166 0 170 23 179 12 5 111 8 220 7 163 -2 199
-5 207 -17z m1180 0 c15 -23 13 -323 -2 -338 -9 -9 -125 -12 -460 -12 -425 0
-448 1 -457 19 -8 14 -9 265 -2 324 3 23 73 27 479 24 368 -2 434 -5 442 -17z
m1188 7 c9 -6 12 -52 12 -172 0 -152 -1 -165 -19 -175 -30 -15 -893 -14 -909
2 -13 13 -17 314 -4 335 4 6 23 13 42 15 75 7 866 3 878 -5z m-6428 -178 c22
-33 40 -63 40 -66 0 -3 11 -21 25 -39 14 -18 25 -35 25 -39 0 -6 22 -41 146
-230 32 -49 62 -97 67 -105 4 -8 20 -34 35 -57 88 -138 123 -197 125 -216 2
-19 -4 -23 -48 -29 -86 -11 -964 -9 -986 3 -28 14 -20 33 69 169 41 63 88 135
104 160 148 232 215 338 259 410 53 87 75 113 91 104 4 -3 26 -32 48 -65z
m1591 55 c8 -9 37 -54 64 -100 28 -46 86 -140 130 -209 285 -447 319 -504 305
-520 -11 -13 -84 -15 -520 -15 -539 0 -540 0 -523 46 8 23 186 312 291 474 89
137 117 181 157 251 32 56 60 89 74 89 5 0 15 -7 22 -16z m2469 -491 c11 -11
5 -322 -6 -333 -17 -17 -393 -27 -422 -11 -22 12 -22 15 -20 179 3 164 3 166
26 172 28 6 415 0 422 -7z m1182 -6 c13 -21 9 -322 -4 -335 -9 -9 -124 -12
-454 -12 -398 0 -443 2 -455 17 -10 11 -15 56 -17 156 -4 155 0 183 26 191 9
3 215 3 457 0 321 -4 442 -9 447 -17z m1190 0 c4 -6 8 -80 8 -164 0 -125 -3
-154 -16 -167 -14 -14 -69 -16 -454 -16 -385 0 -440 2 -454 16 -13 13 -16 42
-16 167 0 84 4 157 8 163 4 7 16 14 27 17 11 4 216 4 454 2 331 -4 437 -8 443
-18z"/>
<path d="M10670 13669 c-44 -18 -69 -50 -80 -103 -8 -35 -10 -208 -8 -543 4
-639 -33 -580 363 -584 149 -1 395 -2 549 -1 l278 2 39 39 39 39 0 523 c0 491
-1 526 -19 559 -10 19 -30 44 -45 55 -27 19 -42 20 -559 22 -343 1 -541 -1
-557 -8z m918 -244 c16 -6 18 -696 2 -726 -10 -18 -25 -19 -374 -19 -295 0
-366 3 -375 14 -8 9 -11 116 -9 372 l3 358 23 6 c26 6 711 2 730 -5z"/>
<path d="M15450 12128 c-182 -38 -396 -136 -555 -252 -58 -43 -205 -193 -243
-249 -76 -113 -82 -159 -28 -213 28 -28 42 -34 75 -34 56 0 79 17 166 126 154
191 342 309 597 373 42 11 91 27 107 36 35 18 64 67 63 107 -1 38 -38 87 -78
104 -37 16 -41 16 -104 2z"/>
<path d="M16845 11950 c-16 -4 -64 -15 -105 -25 -134 -31 -316 -118 -436 -209
-70 -53 -183 -165 -210 -208 -48 -75 -24 -165 52 -194 64 -24 96 -9 188 91
148 162 336 267 546 304 126 23 161 45 175 108 20 96 -89 165 -210 133z"/>
</g>
</svg>
